# Blender v2.82 (sub 7) OBJ File: 'BvhTest2.blend'
# www.blender.org
mtllib BvhMultiLevel.mtl
o Plane
v -3.560814 -0.363381 5.000000
v -4.258468 -0.363381 5.000000
v -3.560814 0.363381 5.000000
v -4.258468 0.363381 5.000000
vt 0.000000 0.000000
vt 1.000000 0.000000
vt 1.000000 1.000000
vt 0.000000 1.000000
vn 0.0000 0.0000 -1.0000
usemtl None
s off
f 1/1/1 2/2/1 4/3/1 3/4/1
o Plane.001_Plane.007
v -4.391475 -0.363381 5.000000
v -5.089128 -0.363381 5.000000
v -4.391475 0.363381 5.000000
v -5.089128 0.363381 5.000000
vt 0.000000 0.000000
vt 1.000000 0.000000
vt 1.000000 1.000000
vt 0.000000 1.000000
vn 0.0000 0.0000 -1.0000
usemtl None
s off
f 5/5/2 6/6/2 8/7/2 7/8/2
o Plane.002_Plane.008
v -7.110326 -0.367055 5.000000
v -7.807980 -0.367055 5.000000
v -7.110326 0.359707 5.000000
v -7.807980 0.359707 5.000000
vt 0.000000 0.000000
vt 1.000000 0.000000
vt 1.000000 1.000000
vt 0.000000 1.000000
vn 0.0000 0.0000 -1.0000
usemtl None
s off
f 9/9/3 10/10/3 12/11/3 11/12/3
o Plane.003_Plane.009
v -2.720972 0.878216 5.000000
v -3.418626 0.878216 5.000000
v -2.720972 1.604978 5.000000
v -3.418626 1.604978 5.000000
vt 0.000000 0.000000
vt 1.000000 0.000000
vt 1.000000 1.000000
vt 0.000000 1.000000
vn 0.0000 0.0000 -1.0000
usemtl None
s off
f 13/13/4 14/14/4 16/15/4 15/16/4
o Plane.004_Plane.010
v -5.187756 2.940316 5.000000
v -5.885409 2.940316 5.000000
v -5.187756 3.667078 5.000000
v -5.885409 3.667078 5.000000
vt 0.000000 0.000000
vt 1.000000 0.000000
vt 1.000000 1.000000
vt 0.000000 1.000000
vn 0.0000 0.0000 -1.0000
usemtl None
s off
f 17/17/5 18/18/5 20/19/5 19/20/5
o Plane.005_Plane.011
v -2.684974 1.906296 5.000000
v -3.382628 1.906296 5.000000
v -2.684974 2.633059 5.000000
v -3.382628 2.633059 5.000000
vt 0.000000 0.000000
vt 1.000000 0.000000
vt 1.000000 1.000000
vt 0.000000 1.000000
vn 0.0000 0.0000 -1.0000
usemtl None
s off
f 21/21/6 22/22/6 24/23/6 23/24/6
o Plane.006_Plane.012
v -2.672626 2.937696 5.000000
v -3.370280 2.937696 5.000000
v -2.672626 3.664458 5.000000
v -3.370280 3.664458 5.000000
vt 0.000000 0.000000
vt 1.000000 0.000000
vt 1.000000 1.000000
vt 0.000000 1.000000
vn 0.0000 0.0000 -1.0000
usemtl None
s off
f 25/25/7 26/26/7 28/27/7 27/28/7
o Plane.007_Plane.013
v 4.201013 -0.363381 5.000000
v 3.503358 -0.363381 5.000000
v 4.201013 0.363381 5.000000
v 3.503358 0.363381 5.000000
vt 0.000000 0.000000
vt 1.000000 0.000000
vt 1.000000 1.000000
vt 0.000000 1.000000
vn 0.0000 0.0000 -1.0000
usemtl None
s off
f 29/29/8 30/30/8 32/31/8 31/32/8
o Plane.008_Plane.014
v -6.274201 -0.363381 5.000000
v -6.971855 -0.363381 5.000000
v -6.274201 0.363381 5.000000
v -6.971855 0.363381 5.000000
vt 0.000000 0.000000
vt 1.000000 0.000000
vt 1.000000 1.000000
vt 0.000000 1.000000
vn 0.0000 0.0000 -1.0000
usemtl None
s off
f 33/33/9 34/34/9 36/35/9 35/36/9
o Plane.009_Plane.015
v -5.311661 -0.363381 5.000000
v -6.009315 -0.363381 5.000000
v -5.311661 0.363381 5.000000
v -6.009315 0.363381 5.000000
vt 0.000000 0.000000
vt 1.000000 0.000000
vt 1.000000 1.000000
vt 0.000000 1.000000
vn 0.0000 0.0000 -1.0000
usemtl None
s off
f 37/37/10 38/38/10 40/39/10 39/40/10
o Plane.010_Plane.016
v -2.734838 -0.363381 5.000000
v -3.432492 -0.363381 5.000000
v -2.734838 0.363381 5.000000
v -3.432492 0.363381 5.000000
vt 0.000000 0.000000
vt 1.000000 0.000000
vt 1.000000 1.000000
vt 0.000000 1.000000
vn 0.0000 0.0000 -1.0000
usemtl None
s off
f 41/41/11 42/42/11 44/43/11 43/44/11
