# Blender v2.82 (sub 7) OBJ File: ''
# www.blender.org
mtllib BvhTest1.mtl
o Plane
v -4.056338 2.042714 5.153075
v -6.056338 2.042714 5.153075
v -4.056338 3.985151 4.676692
v -6.056338 3.985151 4.676692
vt 1.000000 0.000000
vt 0.000000 1.000000
vt 0.000000 0.000000
vt 1.000000 1.000000
vn 0.0000 -0.2382 -0.9712
usemtl None
s off
f 2/1/1 3/2/1 1/3/1
f 2/1/1 4/4/1 3/2/1
o Plane.001
v -4.013512 0.034046 5.153075
v -6.013512 0.034046 5.153075
v -4.013512 1.976483 4.676692
v -6.013512 1.976483 4.676692
vt 1.000000 0.000000
vt 0.000000 1.000000
vt 0.000000 0.000000
vt 1.000000 1.000000
vn 0.0000 -0.2382 -0.9712
usemtl None
s off
f 6/5/2 7/6/2 5/7/2
f 6/5/2 8/8/2 7/6/2
o Plane.002
v 3.780099 0.034046 5.153075
v 1.780099 0.034046 5.153075
v 3.780099 1.976483 4.676692
v 1.780099 1.976483 4.676692
vt 1.000000 0.000000
vt 0.000000 1.000000
vt 0.000000 0.000000
vt 1.000000 1.000000
vn 0.0000 -0.2382 -0.9712
usemtl None
s off
f 10/9/3 11/10/3 9/11/3
f 10/9/3 12/12/3 11/10/3
o Plane.003
v -4.071693 4.105635 5.153075
v -6.071693 4.105635 5.153075
v -4.071693 6.048071 4.676692
v -6.071693 6.048071 4.676692
vt 1.000000 0.000000
vt 0.000000 1.000000
vt 0.000000 0.000000
vt 1.000000 1.000000
vn 0.0000 -0.2382 -0.9712
usemtl None
s off
f 14/13/4 15/14/4 13/15/4
f 14/13/4 16/16/4 15/14/4
